# xmcd CD database file
#
# Track frame offsets:
#	150
#	16185
#	31275
#	43590
#	62005
#	77987
#	89167
#	106400
#	118667
#	134928
#
# Disc length: 1977 seconds
#
# Revision: 0
# Processed by: cddbd v1.5.2PL0 Copyright (c) Steve Scherf et al.
# Submitted via: CDex 1.51
#
DISCID=8b07b70a
DTITLE=Bruce Allen and New South - Just To Get By
DYEAR=1900
DGENRE=Country
TTITLE0=Betty Jean
TTITLE1=Your Memory Slips Around
TTITLE2=Just To Get By
TTITLE3=Loneliest Cowboy In Town
TTITLE4=How Much
TTITLE5=Back To Moma
TTITLE6=Restless Heart
TTITLE7=This Woman Believes In Me
TTITLE8=Still In Love With You
TTITLE9=Just In Time For The Party
EXTD=
EXTT0=
EXTT1=
EXTT2=
EXTT3=
EXTT4=
EXTT5=
EXTT6=
EXTT7=
EXTT8=
EXTT9=
PLAYORDER=
